<svg width="30" height="27" viewBox="0 0 30 27" fill="none" xmlns="http://www.w3.org/2000/svg">
<path d="M20.8333 16.75H19.5167L19.05 16.3562C20.7399 14.6413 21.6687 12.4519 21.6667 10.1875C21.6667 8.31268 21.0313 6.47998 19.8409 4.92114C18.6505 3.3623 16.9586 2.14733 14.9791 1.42988C12.9995 0.71242 10.8213 0.524701 8.71986 0.890457C6.6184 1.25621 4.68808 2.15902 3.17301 3.4847C1.65795 4.81039 0.626171 6.49941 0.208164 8.33819C-0.209842 10.177 0.00469392 12.0829 0.824643 13.815C1.64459 15.5471 3.03313 17.0275 4.81466 18.0691C6.59619 19.1107 8.69071 19.6667 10.8333 19.6667C13.5167 19.6667 15.9833 18.8062 17.8833 17.3771L18.3333 17.7854V18.9375L26.6667 26.2146L29.15 24.0417L20.8333 16.75ZM10.8333 16.75C6.68334 16.75 3.33334 13.8187 3.33334 10.1875C3.33334 6.55623 6.68334 3.62498 10.8333 3.62498C14.9833 3.62498 18.3333 6.55623 18.3333 10.1875C18.3333 13.8187 14.9833 16.75 10.8333 16.75Z" fill="#8A8A8A" fill-opacity="0.6"/>
</svg>
