<svg width="42" height="42" viewBox="0 0 42 42" fill="none" xmlns="http://www.w3.org/2000/svg">
<path fill-rule="evenodd" clip-rule="evenodd" d="M21 0.166687C9.49377 0.166687 0.166687 9.49377 0.166687 21C0.166687 32.5063 9.49377 41.8334 21 41.8334C32.5063 41.8334 41.8334 32.5063 41.8334 21C41.8334 9.49377 32.5063 0.166687 21 0.166687ZM13.7084 15.7917C13.7084 14.8341 13.897 13.886 14.2634 13.0013C14.6298 12.1166 15.1669 11.3128 15.844 10.6357C16.5211 9.9586 17.325 9.42151 18.2096 9.05507C19.0943 8.68862 20.0425 8.50002 21 8.50002C21.9576 8.50002 22.9058 8.68862 23.7904 9.05507C24.6751 9.42151 25.4789 9.9586 26.156 10.6357C26.8331 11.3128 27.3702 12.1166 27.7366 13.0013C28.1031 13.886 28.2917 14.8341 28.2917 15.7917C28.2917 17.7256 27.5235 19.5802 26.156 20.9477C24.7886 22.3151 22.9339 23.0834 21 23.0834C19.0661 23.0834 17.2115 22.3151 15.844 20.9477C14.4766 19.5802 13.7084 17.7256 13.7084 15.7917ZM34.0375 31.3834C32.4775 33.3445 30.4948 34.9281 28.2374 36.0161C25.9799 37.104 23.506 37.6683 21 37.6667C18.4941 37.6683 16.0201 37.104 13.7627 36.0161C11.5052 34.9281 9.52254 33.3445 7.96252 31.3834C11.3396 28.9604 15.9479 27.25 21 27.25C26.0521 27.25 30.6604 28.9604 34.0375 31.3834Z" fill="#F50606"/>
</svg>
